<svg xmlns="http://www.w3.org/2000/svg" xml:space="preserve" style="fill-rule:evenodd;clip-rule:evenodd;stroke-linejoin:round;stroke-miterlimit:2" viewBox="0 0 274 274"><path d="M600 232.553C600 104.203 495.797 0 367.447 0H232.553C104.203 0 0 104.203 0 232.553v134.894C0 495.797 104.203 600 232.553 600h134.894C495.797 600 600 495.797 600 367.447V232.553Z" style="fill:#2e3440" transform="matrix(.45667 0 0 .45667 0 0)"/><path d="M600 300c0-165.575-25.096-300-56.008-300H56.008C25.096 0 0 134.425 0 300s25.096 300 56.008 300h487.984C574.904 600 600 465.575 600 300Z" style="fill:#ebcb8b" transform="matrix(-.00008 .27096 -.05059 -.00001 217.7 55.709)"/><path d="m72.5 216.808.766-.393a15.259 15.259 0 0 0 4.291-3.504L170.5 137 77.726 61.227a15.25 15.25 0 0 0-4.599-3.756l-.627-.315a15.097 15.097 0 0 0-6.476-1.451c-8.376-.003-15.178 6.795-15.18 15.171l-.039 132.222c-.002 8.375 6.796 15.177 15.171 15.18a15.104 15.104 0 0 0 6.524-1.47Z" style="fill:#ebcb8b" transform="translate(5.5)"/></svg>